<?xml version="1.0" standalone="no"?>
<!DOCTYPE svg PUBLIC "-//W3C//DTD SVG 1.1//EN" "http://www.w3.org/Graphics/SVG/1.1/DTD/svg11.dtd" >
<svg xmlns="http://www.w3.org/2000/svg">
<metadata></metadata>
<defs>
<font id="FlorinSansDEMO" horiz-adv-x="974" >
<font-face units-per-em="2048" ascent="1536" descent="-512" />
<missing-glyph horiz-adv-x="512" />
<glyph horiz-adv-x="0" />
<glyph horiz-adv-x="2048" />
<glyph unicode=" "  horiz-adv-x="512" />
<glyph unicode="&#x09;" horiz-adv-x="512" />
<glyph unicode="&#xa0;" horiz-adv-x="512" />
<glyph unicode="0" horiz-adv-x="1075" d="M164 403v629q0 87 17 156t41 112.5t62.5 74.5t69 46t73 23t62 9t48.5 1t48.5 -1t62 -9t73.5 -23t69 -46t62.5 -74.5t41.5 -112.5t17 -156v-629q0 -87 -17 -156t-41.5 -112t-62.5 -74.5t-68.5 -46t-73.5 -22.5t-62.5 -9t-48.5 -1t-48.5 1t-62 9t-73 22.5t-69 46 t-62.5 74.5t-41 112t-17 156zM276 403q0 -319 261 -319q262 0 262 319v629q0 320 -262 320q-261 0 -261 -320v-629z" />
<glyph unicode="1" horiz-adv-x="892" d="M113 1223v108l331 103h113v-1332h234v-102h-629v102h282v1219z" />
<glyph unicode="2" horiz-adv-x="1009" d="M164 1331v103q170 20 305 20q32 0 63.5 -3.5t70 -13.5t71.5 -26.5t65.5 -45.5t55.5 -66.5t37 -93t14 -122.5q0 -79 -15 -140t-32 -98.5t-63.5 -78.5t-75 -59.5t-101.5 -62.5q-28 -17 -43 -26q-66 -39 -109 -71t-69 -58t-39 -56.5t-16.5 -56t-3.5 -65.5v-209h563v-102 h-676v307q0 40 2 63.5t10 61.5t27 67.5t50.5 66t84 74.5t123.5 77q76 42 125 77.5t78 65t43 67.5t18 70t4 86q0 123 -68 196t-194 73q-57 0 -133.5 -5t-123.5 -11z" />
<glyph unicode="3" horiz-adv-x="1007" d="M164 0v102q176 -20 303 -20q124 0 187 75t63 199q0 63 -5 111.5t-19 94t-38 75t-63 47.5t-92 18h-240v103h240q111 0 171 84t60 201q0 122 -67 191t-195 69q-56 0 -132 -5t-123 -9l-48 -5v103q170 18 305 18q33 0 63.5 -3t69 -12.5t71 -25t65 -43.5t54.5 -64.5t36 -91.5 t14 -122q0 -70 -14 -130.5t-33.5 -96.5t-41 -62t-35.5 -36.5t-18 -10.5q5 0 17.5 -9.5t31.5 -38t36 -70t29.5 -115.5t12.5 -165q0 -92 -25 -162t-62 -109t-88.5 -63.5t-95 -32t-89.5 -7.5q-60 0 -136.5 4.5t-122.5 9.5z" />
<glyph unicode="4" horiz-adv-x="1110" d="M133 324v102q23 33 39.5 60t57.5 121t67.5 195t49 271t22.5 361h112q0 -179 -18 -339.5t-42 -264.5t-57.5 -195t-55.5 -133t-44 -76h461v397h111v-397h151v-102h-151v-324h-111v324h-592z" />
<glyph unicode="5" horiz-adv-x="1021" d="M164 676v758h661v-103h-549v-540q12 5 33.5 13t93.5 21t148 13q51 0 92.5 -11t82.5 -43.5t69 -86t45.5 -143t17.5 -208.5q0 -77 -18 -137.5t-49.5 -99t-68.5 -65t-81.5 -39.5t-81 -18t-74.5 -5q-60 0 -136.5 4.5t-122.5 9.5l-46 4v104q176 -20 303 -20q126 0 194 71.5 t68 192.5q0 72 -4 125t-16.5 105t-34 84.5t-57.5 52.5t-86 20q-76 0 -144 -14.5t-97 -29.5l-30 -15h-112z" />
<glyph unicode="6" horiz-adv-x="1046" d="M164 403v684q0 92 26 161.5t63.5 107.5t90 61t96 30t90.5 7q60 0 132.5 -5t114.5 -10l42 -5v-101q-160 21 -287 21q-125 0 -190.5 -72t-65.5 -195v-294q147 55 306 55q50 0 90 -9.5t81 -38.5t68.5 -76.5t44.5 -129t17 -191.5q0 -87 -16.5 -156t-39.5 -112t-59.5 -74.5 t-66 -46t-70.5 -22.5t-60 -9t-47 -1q-29 0 -48 1t-60 9t-70.5 22.5t-66 46t-60 74.5t-39.5 112t-16 156zM276 403q0 -94 19.5 -159t56 -98.5t78 -47.5t94.5 -14q50 0 89.5 12.5t75.5 42.5t57.5 87t25.5 139q0 78 -4 131t-15.5 103.5t-32.5 80.5t-56.5 47.5t-85.5 17.5 q-78 0 -151.5 -13.5t-105.5 -25t-45 -18.5v-285z" />
<glyph unicode="7" horiz-adv-x="952" d="M133 1331v103h707v-183q0 -78 -28.5 -162.5t-71 -156t-92 -156t-92 -162t-71 -174.5t-28.5 -192v-248h-113v248q0 115 39.5 235t96 219t112.5 191t95.5 183t39.5 163v92h-594z" />
<glyph unicode="8" horiz-adv-x="1073" d="M164 391q0 274 160 367q-154 88 -154 323q0 76 16 137t39.5 99t60.5 65.5t66.5 40.5t71.5 20t62 8t51 1q29 0 48.5 -1t61 -8t71.5 -20t67.5 -40.5t61 -65.5t40 -99t16.5 -137q0 -237 -149 -325q155 -93 155 -365q0 -67 -10 -122.5t-25 -95.5t-39.5 -71.5t-47 -51.5 t-54 -34.5t-53.5 -21t-53.5 -10t-45.5 -4t-38 -0.5h-6h-6q-23 0 -38 0.5t-46 4t-53 10t-54 21t-54.5 34.5t-47 51.5t-39.5 71.5t-25 95.5t-10 122.5zM276 391q0 -93 21.5 -157.5t61 -96.5t82 -44.5t96.5 -12.5q43 0 78 7t70.5 27.5t59.5 54t39 90.5t15 132t-15 131.5t-39 90 t-59.5 54t-70.5 28t-78 7.5t-78 -7.5t-70 -28t-59 -54t-39 -90t-15 -131.5zM283 1081q0 -270 254 -270q54 0 96 11.5t80 39.5t59 83.5t21 135.5q0 269 -256 269q-254 0 -254 -269z" />
<glyph unicode="9" horiz-adv-x="1046" d="M164 1032q0 68 10 125.5t25 98t39.5 73t47 53t53.5 35.5t52.5 21.5t51.5 10.5t44 4.5t35 0.5t35 -0.5t44.5 -4.5t52.5 -10.5t53.5 -21.5t54 -35.5t46.5 -53t39.5 -73t25.5 -98t10 -125.5v-684q0 -92 -26 -161t-63.5 -107t-90.5 -61.5t-96.5 -30t-90.5 -6.5q-60 0 -132 5 t-114 10l-43 5v100q160 -20 287 -20q125 0 190.5 72t65.5 194v295q-147 -55 -305 -55q-50 0 -90 9.5t-81 38t-68.5 76t-44.5 129t-17 191.5zM274 1071q0 -77 4 -131t16 -104.5t33 -80t56.5 -47.5t85.5 -18q78 0 151.5 13.5t105 25t44.5 19.5v284q0 94 -19.5 159t-56 99 t-78 48t-94.5 14q-50 0 -89.5 -12.5t-75.5 -42.5t-57.5 -87t-25.5 -139z" />
<glyph unicode="A" horiz-adv-x="1120" d="M51 0l449 1434h123l446 -1434h-121l-119 389h-538l-119 -389h-121zM324 492h473l-236 765z" />
<glyph unicode="B" horiz-adv-x="1058" d="M164 0v1434h112q167 10 226 10q182 0 288.5 -92t106.5 -291q0 -78 -18.5 -138t-45.5 -90.5t-54 -49t-45 -23.5l-19 -4q9 -3 24 -8.5t53 -32t67 -62.5t53 -103t24 -149q0 -106 -31 -187t-85.5 -129t-121.5 -71.5t-145 -23.5l-277 10h-112zM276 106q175 -10 265 -10 q55 0 104 17.5t89.5 52.5t64.5 95.5t24 139.5t-26 139t-68.5 93t-91 49t-100.5 16h-261v-592zM276 803h246q114 0 188 64.5t74 193.5q0 136 -73 208t-211 72q-45 0 -101 -2.5t-89 -4.5l-34 -3v-528z" />
<glyph unicode="C" horiz-adv-x="1007" d="M164 350v733q0 67 14 122.5t36.5 93t55 66.5t65 45.5t71 26.5t70 13.5t63.5 3.5q60 0 136.5 -5t122.5 -10l46 -5v-103q-176 21 -303 21q-128 0 -196.5 -73t-68.5 -196v-731q0 -123 69 -196.5t196 -73.5q56 0 132 5t123 10l48 5v-102q-170 -18 -305 -18q-32 0 -63.5 3.5 t-70 13.5t-71 26.5t-65 45t-55 65.5t-36.5 92t-14 122z" />
<glyph unicode="D" horiz-adv-x="1118" d="M164 0v1434h112q171 16 306 16q48 0 91.5 -6.5t97 -29.5t92 -61t65 -107.5t26.5 -162.5v-733q0 -92 -26.5 -161t-65 -106.5t-92 -60.5t-97 -29.5t-91.5 -6.5q-60 0 -136.5 3.5t-123.5 6.5l-46 4h-112zM276 102q177 -16 304 -16q128 0 195 71.5t67 194.5v731 q0 123 -67 194t-195 71q-56 0 -132 -4t-124 -8l-48 -5v-1229z" />
<glyph unicode="E" horiz-adv-x="946" d="M164 0v1434h618v-103h-506v-524h506v-102h-506v-603h506v-102h-618z" />
<glyph unicode="F" horiz-adv-x="892" d="M164 0v1434h616v-103h-504v-524h504v-102h-504v-705h-112z" />
<glyph unicode="G" horiz-adv-x="1118" d="M164 350v733q0 67 17.5 122.5t45 93t66.5 66.5t78.5 45.5t83.5 26.5t78 13.5t67 3.5q60 0 138.5 -5t126.5 -10l48 -5v-105q-186 21 -313 21q-151 0 -237.5 -73t-86.5 -194v-731q0 -123 68 -194.5t195 -71.5q56 0 132 4t123 8l48 4v551h-189v103h301v-756h-112 q-168 -14 -303 -14q-48 0 -91.5 6.5t-98 29.5t-93 60.5t-65.5 106.5t-27 161z" />
<glyph unicode="H" horiz-adv-x="1097" d="M164 0v1434h112v-627h545v627h113v-1434h-113v705h-545v-705h-112z" />
<glyph unicode="I" horiz-adv-x="733" d="M82 0v96h227v1243h-227v95h569v-95h-229v-1243h229v-96h-569z" />
<glyph unicode="J" horiz-adv-x="806" d="M31 0v100q135 -20 264 -20q124 0 183 72.5t59 197.5v1084h106v-1084q0 -92 -24 -161.5t-59 -107.5t-84.5 -61.5t-91.5 -30.5t-89 -7q-60 0 -126 4.5t-102 9.5z" />
<glyph unicode="K" horiz-adv-x="1042" d="M164 0v1434h112v-678l492 678h139l-487 -678l541 -756h-140l-545 756v-756h-112z" />
<glyph unicode="L" horiz-adv-x="845" d="M164 0v1434h112v-1332h508v-102h-620z" />
<glyph unicode="M" horiz-adv-x="1429" d="M164 0v1434h112l439 -969l438 969h113v-1434h-113v1159l-387 -837h-102l-388 837v-1159h-112z" />
<glyph unicode="N" horiz-adv-x="1175" d="M164 0v1434h112l623 -1205v1205h113v-1434h-113l-623 1186v-1186h-112z" />
<glyph unicode="O" horiz-adv-x="1116" d="M154 401v631q0 87 18.5 156t45.5 112.5t68.5 74.5t75 46t79 23t66.5 9t50 1q20 0 33 -0.5t42 -3t51 -8t53.5 -15t56 -26t52 -38.5t47.5 -54t37 -71t25.5 -92t8.5 -114v-631q0 -86 -19 -155t-46 -112t-68.5 -74.5t-75.5 -46.5t-79.5 -23t-67 -9t-50.5 -1q-22 0 -37 0.5 t-48 4.5t-58 11t-60 21.5t-61 35t-53.5 53t-45 73t-29 97.5t-11.5 125zM266 403q0 -75 18 -132.5t46.5 -92t68 -56.5t77.5 -30t81 -8t81.5 8t78 30t68.5 56.5t47 92t18 132.5v627q0 75 -18 133t-47 92.5t-68.5 56.5t-78 30t-81.5 8t-81 -8t-77.5 -30t-68 -56.5t-46.5 -92.5 t-18 -133v-627z" />
<glyph unicode="P" horiz-adv-x="968" d="M164 0v1434h112q167 10 226 10q178 0 286.5 -100t108.5 -300t-108 -299.5t-287 -99.5l-226 10v-655h-112zM276 758q122 -10 222 -10q138 0 212 79t74 217q0 139 -74 218t-212 79q-44 0 -99.5 -2.5t-88.5 -4.5l-34 -3v-573z" />
<glyph unicode="Q" horiz-adv-x="1165" d="M164 401v631q0 87 19 156t45.5 112.5t68.5 74.5t75.5 46t79.5 23t67 9t50 1q22 0 37 -0.5t48 -4.5t58 -10.5t60 -21.5t61 -35.5t54 -53t45.5 -73t29 -98t11.5 -125.5v-631q0 -249 -148 -354l176 -176l-73 -72l-201 201q-66 -20 -158 -20q-29 0 -50.5 1t-67 9t-79 23 t-75.5 46.5t-69 74.5t-45.5 112t-18.5 155zM276 403q0 -75 18 -132.5t47 -92t68.5 -56.5t78 -30t81.5 -8t81 8t77.5 30t68 56.5t46.5 92t18 132.5v627q0 75 -18 133t-46.5 92.5t-68 56.5t-77.5 30t-81 8t-81.5 -8t-78 -30t-68.5 -56.5t-47 -92.5t-18 -133v-627z" />
<glyph unicode="R" horiz-adv-x="1046" d="M164 0v1434h112q167 10 226 10q87 0 158 -23.5t124.5 -71.5t83 -125.5t29.5 -179.5q0 -165 -75.5 -262.5t-205.5 -124.5l328 -657h-123l-321 645l-224 10v-655h-112zM276 758q122 -10 224 -10q136 0 210 79t74 217t-74 217.5t-210 79.5q-45 0 -101 -2.5t-89 -4.5l-34 -3 v-573z" />
<glyph unicode="S" horiz-adv-x="1017" d="M154 0v117q24 -3 63.5 -7t131 -10.5t147.5 -5.5q41 1 74.5 7.5t68.5 25t58 48t38 80.5t15 118q0 130 -63.5 200.5t-188.5 114.5q-117 41 -145 55q-123 59 -166 174q-26 69 -27 164q-1 75 14 134.5t38 97.5t59.5 65.5t67 41t72 21.5t63.5 9t52 2h4q81 2 153 -3t104 -11 l32 -6v-113q-18 2 -48 6t-105 9.5t-131 4.5q-44 -1 -76.5 -5.5t-70 -20t-61 -41.5t-39.5 -73.5t-16 -113.5q0 -31 6 -58.5t13.5 -49t24 -42t28.5 -34t35.5 -28.5t37 -23t41.5 -20.5t40 -17t41 -15.5q106 -40 152 -69q166 -109 171 -353q1 -81 -12.5 -145t-35 -104.5 t-54.5 -69.5t-62.5 -43t-68.5 -22t-63 -9.5t-54 -1.5h-14q-74 -2 -160 3t-135 11z" />
<glyph unicode="T" horiz-adv-x="921" d="M41 1331v103h840v-103h-363v-1331h-112v1331h-365z" />
<glyph unicode="U" horiz-adv-x="1138" d="M164 401v1031h112v-1031q0 -75 18 -132.5t47 -91.5t69 -56t78 -29.5t81 -7.5t81 7.5t78 29.5t69 56t47 91.5t18 132.5v1031h113v-1031q0 -87 -19 -156t-45.5 -112t-69 -74.5t-76 -46t-79.5 -22.5t-66.5 -9t-50.5 -1t-50.5 1t-66.5 9t-79.5 22.5t-75.5 46t-68.5 74.5 t-45.5 112t-19 156z" />
<glyph unicode="V" horiz-adv-x="1103" d="M82 1434h117l354 -1321l352 1321h117l-383 -1434h-174z" />
<glyph unicode="W" horiz-adv-x="1761" d="M123 1434h117l272 -1321l293 1321h151l293 -1321l273 1321h116l-301 -1434h-174l-282 1266l-283 -1266h-174z" />
<glyph unicode="X" horiz-adv-x="1157" d="M113 0l401 756l-360 678h127l297 -557l296 557h130l-361 -678l401 -756h-129l-337 635l-338 -635h-127z" />
<glyph unicode="Y" horiz-adv-x="1064" d="M82 1434h125l325 -699l326 699h125l-393 -846v-588h-113v588z" />
<glyph unicode="Z" horiz-adv-x="976" d="M133 0v102l588 1229h-567v103h690v-103l-588 -1229h561v-102h-684z" />
<glyph unicode="a" d="M154 274q0 155 85.5 232.5t241.5 77.5q29 0 56.5 -0.5t48 -1.5t39 -2.5t31.5 -2.5t22.5 -2t14.5 -1l5 -1v109q0 105 -43.5 168t-132.5 63q-92 0 -163.5 -5.5t-96.5 -11.5l-26 -5v110q165 19 286 19q43 0 80 -7.5t77 -30t68 -59t46 -98t18 -143.5v-682h-113l-15 -2 q-15 -2 -41 -4.5t-57.5 -5t-73.5 -4.5t-81 -2q-119 0 -197.5 72.5t-78.5 219.5zM266 274q0 -95 48 -141.5t112 -46.5q37 0 78 2t74 4.5t60 5t44 4.5l16 2v367l-6 1q-6 1 -16.5 2t-24.5 2.5t-33 3t-40 2.5t-47 2t-52 1q-99 0 -156 -54.5t-57 -156.5z" />
<glyph unicode="b" d="M164 0v1434h112v-433q126 21 271 21q56 0 104 -17t87 -51t61 -91.5t22 -133.5v-455q0 -147 -77.5 -219.5t-196.5 -72.5q-64 0 -132 4.5t-103 9.5l-36 4h-112zM276 104q142 -18 273 -18q65 0 112.5 46.5t47.5 141.5v455q0 95 -47.5 140.5t-112.5 45.5q-58 0 -126.5 -4 t-107.5 -8l-39 -4v-795z" />
<glyph unicode="c" horiz-adv-x="851" d="M154 274v455q0 76 22 133.5t61 91.5t87 51t104 17q64 0 131.5 -5t102.5 -11l36 -5v-102q-139 16 -272 16q-64 0 -112 -46t-48 -140v-455q0 -95 48 -141.5t112 -46.5q59 0 127 4t107 10l38 4v-104q-125 -18 -270 -18q-119 0 -196.5 72.5t-77.5 219.5z" />
<glyph unicode="d" d="M154 274v455q0 147 78.5 221t195.5 74q64 0 131.5 -5t102.5 -10l36 -5v430h113v-1434h-113q-125 -18 -270 -18q-118 0 -196 72.5t-78 219.5zM266 274q0 -95 48 -141.5t112 -46.5q59 0 127 4.5t107 9.5l38 4v795q-139 19 -272 19q-64 0 -112 -47t-48 -142v-455z" />
<glyph unicode="e" horiz-adv-x="962" d="M154 274v326q0 79 11.5 143t29.5 107.5t45.5 76t55 50.5t62 29t62.5 14.5t61 3.5q32 0 60.5 -3.5t63 -15t62.5 -29.5t55 -51t45.5 -76t30 -107t11.5 -142v-160h-543v-166q0 -49 20.5 -87t52.5 -59t65 -31.5t63 -10.5q59 0 137.5 4t127.5 10l48 4v-104q-166 -18 -311 -18 q-44 0 -87.5 10t-85 33t-73 56t-50.5 83t-19 110zM266 543h432v57q0 91 -16 154t-46.5 98t-67.5 50.5t-87 17.5q-49 -2 -86 -17.5t-67 -50.5t-46 -98t-16 -154v-57z" />
<glyph unicode="f" horiz-adv-x="653" d="M82 901v103h135v194q0 130 45.5 193t151.5 63q40 0 89.5 -5t78.5 -10l30 -5v-103q-106 19 -182 19q-57 0 -78.5 -39t-21.5 -113v-194h245v-103h-245v-901h-113v901h-135z" />
<glyph unicode="g" horiz-adv-x="985" d="M164 274v455q0 147 78.5 221t195.5 74q64 0 132 -5t104 -10l35 -5h112v-1086q0 -82 -18 -143.5t-46 -98t-68 -59t-77 -30t-80 -7.5q-54 0 -136 5t-138 9l-55 5v114q120 -16 329 -16q90 0 133.5 59.5t43.5 161.5v82l-8 -1q-8 -1 -21.5 -2.5t-32 -3.5t-42.5 -4t-50 -3.5 t-56.5 -2.5t-60.5 -1q-118 0 -196 72.5t-78 219.5zM276 274q0 -95 48 -141.5t112 -46.5q37 0 78 2t74 4.5t60.5 5t43.5 4.5l17 2v797l-17 2q-16 2 -43.5 4.5t-60.5 4.5t-74 4t-78 2q-64 0 -112 -47t-48 -142v-455z" />
<glyph unicode="h" d="M164 0v1434h112v-430q128 20 271 20q118 0 196 -73.5t78 -221.5v-729h-112v729q0 95 -47.5 142t-112.5 47q-27 0 -56 -1t-55 -2.5t-50.5 -3t-44.5 -3.5l-35 -3.5t-24 -2.5l-8 -1v-901h-112z" />
<glyph unicode="i" horiz-adv-x="464" d="M174 1264v170h117v-170h-117zM176 0v1004h113v-1004h-113z" />
<glyph unicode="j" horiz-adv-x="458" d="M-102 -299q106 -14 182 -14q56 0 78 39t22 112v1166h113v-1166q0 -132 -46 -195t-153 -63q-39 0 -88 5t-78 9l-30 5v102zM178 1264v170h117v-170h-117z" />
<glyph unicode="k" horiz-adv-x="868" d="M164 0v1434h112v-879l386 449h139l-381 -449l397 -555h-137l-404 555v-555h-112z" />
<glyph unicode="l" horiz-adv-x="440" d="M164 0v1434h112v-1434h-112z" />
<glyph unicode="m" horiz-adv-x="1529" d="M164 0v1004h112q126 20 271 20q133 0 207 -86q26 15 63 31.5t116.5 35.5t158.5 19q117 0 195.5 -73t78.5 -220v-731h-113v731q0 95 -47.5 141t-111.5 46q-157 0 -291 -68q18 -50 18 -119v-731h-112v731q0 95 -48 141t-112 46q-37 0 -78 -2t-74 -5t-60.5 -6.5t-44.5 -5.5 l-16 -2v-897h-112z" />
<glyph unicode="n" horiz-adv-x="983" d="M164 0v1004h112q126 20 269 20q56 0 104 -17t87 -51t61 -91.5t22 -133.5v-731h-110v731q-1 65 -26.5 109t-59.5 61t-74 17q-27 0 -56.5 -1t-55.5 -3t-50.5 -4t-44 -4.5t-34.5 -4.5t-24 -3l-8 -1v-897h-112z" />
<glyph unicode="o" horiz-adv-x="997" d="M154 401v201q0 88 11.5 156t27 112.5t46 75t54 45.5t66.5 23t68 9t73 1q49 0 74 -1t68.5 -9t66.5 -23t53 -45.5t45 -75t26 -112.5t11 -156v-201q0 -88 -11 -156t-26 -112t-45 -74.5t-53 -45.5t-66 -23t-68 -9t-74 -1h-1h-1q-48 0 -73 1t-68 9t-66.5 23t-54 45.5 t-45.5 74.5t-26.5 112t-11.5 156zM266 408q0 -67 6 -117.5t15 -85t26.5 -58t33.5 -36.5t44.5 -19.5t50 -8t58.5 -1.5q47 0 77.5 5t62.5 23t50 52t29.5 93.5t11.5 145.5v201q0 86 -11.5 146t-29.5 94t-50 52t-62.5 23t-77.5 5q-50 0 -80 -4.5t-63 -22t-50.5 -51.5t-29 -94 t-11.5 -148v-194z" />
<glyph unicode="p" d="M164 -401v1405h112q128 20 271 20q56 0 104 -17t87 -51t61 -91.5t22 -133.5v-457q0 -147 -77.5 -219.5t-196.5 -72.5q-64 0 -131.5 4.5t-103.5 9.5l-36 4v-401h-112zM276 104l8 -1q9 -1 24 -2.5l35 -3.5t44.5 -4t50.5 -3.5t55 -2.5t56 -1q65 0 112.5 46.5t47.5 141.5v457 q0 95 -47.5 142t-112.5 47q-27 0 -56 -1t-55 -2.5t-50.5 -4t-44.5 -4.5l-35 -3.5t-24 -2.5l-8 -1v-797z" />
<glyph unicode="q" d="M154 276v455q0 147 78.5 220t195.5 73q64 0 131.5 -5t102.5 -10l36 -5h113v-1405h-113v401q-125 -18 -270 -18q-117 0 -195.5 73.5t-78.5 220.5zM266 276q0 -95 48 -142.5t112 -47.5q59 0 127 4.5t107 9.5l38 4v797q-139 19 -272 19q-64 0 -112 -47t-48 -142v-455z" />
<glyph unicode="r" horiz-adv-x="626" d="M164 0v1004h112q126 20 269 20v-106q-36 0 -76.5 -2t-73 -4t-59.5 -4.5t-44 -4.5l-16 -2v-901h-112z" />
<glyph unicode="s" horiz-adv-x="907" d="M143 0v106q154 -22 310 -22q38 0 70.5 7.5t62.5 25t47.5 51t17.5 80.5q0 39 -10.5 68t-24.5 48t-45 37t-56.5 28.5t-74.5 27.5q-114 43 -141 56q-118 60 -144 168q-8 34 -8 75q0 67 22.5 118t55.5 78.5t79.5 44.5t84 22t78.5 5q53 0 117 -5t102 -10l37 -5v-101 q-96 19 -252 19q-111 0 -161 -46.5t-50 -119.5q0 -64 41 -100.5t150 -75.5q144 -51 192 -80q92 -56 113 -160q8 -39 8 -88q0 -80 -25.5 -135.5t-72 -83.5t-97.5 -39.5t-116 -11.5q-71 0 -148.5 4.5t-119.5 9.5z" />
<glyph unicode="t" horiz-adv-x="714" d="M92 901v103h133v430h113v-430h248v-103h-248v-663q0 -73 22 -112.5t78 -39.5q35 0 81 4t75 8l29 4v-102q-111 -18 -199 -18q-107 0 -153 62.5t-46 193.5v663h-133z" />
<glyph unicode="u" horiz-adv-x="985" d="M164 274v730h112v-730q0 -95 48 -141.5t112 -46.5q27 0 56 1.5t55 3.5t50.5 4.5t44.5 4.5t35 4t23 4l9 1v895h112v-1004h-112q-126 -18 -271 -18q-117 0 -195 72.5t-79 219.5z" />
<glyph unicode="v" horiz-adv-x="966" d="M82 1004h121l280 -875l281 875h121l-334 -1004h-135z" />
<glyph unicode="w" horiz-adv-x="1447" d="M102 1004h121l221 -871l220 871h122l220 -871l219 871h121l-271 -1004h-141l-209 831l-211 -831h-141z" />
<glyph unicode="x" horiz-adv-x="1036" d="M113 0l340 526l-308 478h127l246 -375l246 375h127l-307 -478l340 -526h-127l-279 426l-278 -426h-127z" />
<glyph unicode="y" horiz-adv-x="1007" d="M102 1004h121l283 -875l278 875h121l-463 -1405h-116l123 366z" />
<glyph unicode="z" horiz-adv-x="952" d="M164 0v102l495 799h-487v103h610v-103l-495 -799h501v-102h-624z" />
<glyph unicode="&#x2000;" horiz-adv-x="727" />
<glyph unicode="&#x2001;" horiz-adv-x="1454" />
<glyph unicode="&#x2002;" horiz-adv-x="727" />
<glyph unicode="&#x2003;" horiz-adv-x="1454" />
<glyph unicode="&#x2004;" horiz-adv-x="484" />
<glyph unicode="&#x2005;" horiz-adv-x="363" />
<glyph unicode="&#x2006;" horiz-adv-x="242" />
<glyph unicode="&#x2007;" horiz-adv-x="242" />
<glyph unicode="&#x2008;" horiz-adv-x="181" />
<glyph unicode="&#x2009;" horiz-adv-x="290" />
<glyph unicode="&#x200a;" horiz-adv-x="80" />
<glyph unicode="&#x202f;" horiz-adv-x="290" />
<glyph unicode="&#x205f;" horiz-adv-x="363" />
</font>
</defs>
</svg>
